<svg width="147" height="56" viewBox="0 0 147 56" fill="none" xmlns="http://www.w3.org/2000/svg">
<path d="M146.768 5.06317C146.768 13.3509 107.329 22.4987 104.342 22.4987C102.668 22.4987 100.768 22.1078 100.768 20.5441C100.768 20.0216 101.363 19.2665 102.408 18.3562L99.6383 13.3737C99.2635 12.699 99.5607 11.8444 100.27 11.5566L100.746 11.3636C101.608 11.0139 102.579 11.066 103.4 11.5062L108.426 14.2016C110.382 13.0258 112.602 11.7947 114.942 10.5827L105.148 4.14563C104.373 3.63632 104.381 2.48448 105.163 1.98676L105.964 1.47683C107.298 0.628177 108.919 0.377518 110.442 0.78435L126.735 5.13809C131.816 3.09539 136.409 1.70119 139.128 1.70119C139.854 1.70119 140.581 1.72068 141.283 1.77149L136.362 4.02171L136.244 5.69835L143.84 2.16133C145.66 2.6012 146.768 3.42214 146.768 5.06317ZM126.946 19.3695L133.024 26.3636C133.394 26.7898 133.998 26.9181 134.506 26.6788L135.32 26.2956C136.804 25.5967 137.678 24.0119 137.488 22.3651L136.727 15.7748C136.68 15.3671 136.272 15.109 135.89 15.2453L127.211 18.3423C126.788 18.4932 126.65 19.0289 126.946 19.3695Z" fill="#FCF5ED"/>
<path d="M26.6226 7.46351C25.82 7.34156 24.9773 7.04685 24.0945 6.57938V5.42086H31.6786V6.57938C31.3375 6.80295 30.9764 6.98587 30.5952 7.12815C30.214 7.27042 29.8428 7.38221 29.4816 7.46351L24.1547 26.762L21.0248 27.1278L16.36 12.372L11.8155 26.762L8.65547 27.1278L2.78682 7.46351C2.36549 7.38221 1.97424 7.27042 1.6131 7.12815C1.25195 6.96555 0.910864 6.78263 0.589844 6.57938V5.42086H10.3408V6.57938C9.99974 6.7623 9.6085 6.93506 9.1671 7.09766C8.74576 7.23994 8.30436 7.36189 7.84289 7.46351L10.6418 18.2255L11.2738 22.1889H11.334L12.3873 18.0731L16.39 5.42086H18.1657L22.4393 17.9207L23.4625 21.884H23.5227L24.2149 17.8597L26.6226 7.46351Z" fill="#FCF5ED"/>
<path d="M30.2959 19.1402C30.2959 17.9003 30.4764 16.7926 30.8376 15.817C31.2188 14.8211 31.7505 13.9776 32.4327 13.2866C33.1349 12.5955 33.9776 12.0671 34.9607 11.7012C35.9438 11.3354 37.0574 11.1525 38.3013 11.1525C39.7058 11.1525 40.9096 11.3557 41.9128 11.7622C42.936 12.1484 43.7687 12.6972 44.4107 13.4085C45.0728 14.0996 45.5544 14.9431 45.8553 15.939C46.1563 16.9146 46.3068 17.9816 46.3068 19.1402C46.3068 20.38 46.1262 21.4978 45.765 22.4938C45.4039 23.4694 44.8722 24.3027 44.17 24.9937C43.4878 25.6848 42.6451 26.2132 41.6419 26.5791C40.6588 26.9449 39.5453 27.1278 38.3013 27.1278C36.937 27.1278 35.7532 26.9348 34.75 26.5486C33.7468 26.1421 32.9142 25.5933 32.2521 24.9023C31.59 24.1909 31.0984 23.3474 30.7774 22.3718C30.4564 21.3759 30.2959 20.2987 30.2959 19.1402ZM34.9607 19.1402C34.9607 20.0548 35.0109 20.8983 35.1112 21.6706C35.2316 22.4226 35.4322 23.0629 35.7131 23.5913C35.994 24.1198 36.3752 24.5364 36.8567 24.8413C37.3383 25.1258 37.9602 25.2681 38.7227 25.2681C39.1641 25.2681 39.5653 25.1665 39.9265 24.9632C40.2876 24.7397 40.5986 24.3941 40.8594 23.9267C41.1203 23.4389 41.3109 22.8088 41.4313 22.0365C41.5717 21.2438 41.6419 20.2784 41.6419 19.1402C41.6419 18.2052 41.5817 17.3617 41.4614 16.6097C41.361 15.8577 41.1704 15.2175 40.8895 14.689C40.6287 14.1606 40.2676 13.7541 39.8061 13.4695C39.3446 13.1646 38.7628 13.0122 38.0605 13.0122C37.5389 13.0122 37.0875 13.124 36.7062 13.3476C36.325 13.5508 36.004 13.8963 35.7432 14.3841C35.4824 14.8516 35.2817 15.4817 35.1413 16.2743C35.0209 17.0467 34.9607 18.002 34.9607 19.1402Z" fill="#FCF5ED"/>
<path d="M55.9599 15.0244C55.7192 15.1463 55.4383 15.3496 55.1172 15.6341C54.7962 15.9187 54.5053 16.3861 54.2445 17.0365V24.8413C54.6457 24.8819 55.047 24.9632 55.4483 25.0852C55.8496 25.1868 56.2508 25.3494 56.6521 25.573V26.762H47.9244V25.573C48.2855 25.3697 48.6266 25.2173 48.9476 25.1157C49.2687 25.014 49.5897 24.9226 49.9107 24.8413V13.6829L47.9244 13.439V12.25C48.2454 12.1077 48.6367 11.9756 49.0981 11.8537C49.5797 11.7317 50.0712 11.6301 50.5728 11.5488C51.0744 11.4472 51.5559 11.3659 52.0174 11.3049C52.4989 11.2439 52.9002 11.1931 53.2212 11.1525H54.2445V15.2073H54.3649C54.5254 14.7601 54.7561 14.2927 55.0571 13.8049C55.3781 13.3171 55.7493 12.8699 56.1706 12.4634C56.5919 12.0569 57.0534 11.7317 57.555 11.4878C58.0566 11.2439 58.5782 11.1322 59.12 11.1525C59.3407 11.437 59.5313 11.8435 59.6918 12.372C59.8523 12.8801 59.9827 13.3679 60.083 13.8354V15.0244H55.9599Z" fill="#FCF5ED"/>
<path d="M69.4327 26.762H61.1263V25.573C61.7884 25.2478 62.4505 25.0039 63.1126 24.8413V6.36597L60.8253 6.12207V4.93306C61.0861 4.81111 61.4473 4.68916 61.9087 4.56721C62.3702 4.44526 62.8618 4.34364 63.3834 4.26234C63.9252 4.16072 64.4568 4.07942 64.9785 4.01844C65.5202 3.93714 66.0018 3.87617 66.4231 3.83552H67.4463V24.8413C68.1084 25.0039 68.7706 25.2478 69.4327 25.573V26.762Z" fill="#FCF5ED"/>
<path d="M81.3816 23.7437C81.2812 24.1909 81.1007 24.6177 80.8398 25.0242C80.579 25.4307 80.268 25.7966 79.9069 26.1218C79.5457 26.4266 79.1344 26.6705 78.673 26.8535C78.2115 27.0364 77.7199 27.1278 77.1983 27.1278C75.212 27.1278 73.6971 26.4978 72.6538 25.2376C71.6306 23.9572 71.119 22.006 71.119 19.3841C71.119 18.0426 71.2995 16.8739 71.6607 15.878C72.0218 14.8618 72.5234 14.0081 73.1655 13.3171C73.8276 12.626 74.6201 12.1077 75.543 11.7622C76.4659 11.4167 77.4892 11.2439 78.6128 11.2439C78.9739 11.2439 79.2749 11.2541 79.5156 11.2744C79.7765 11.2948 80.0072 11.3252 80.2078 11.3659C80.4285 11.3862 80.6292 11.437 80.8097 11.5183C81.0104 11.5793 81.2311 11.6504 81.4718 11.7317V6.36597L79.1846 6.12207V4.93306C79.4655 4.81111 79.8467 4.69932 80.3282 4.5977C80.8298 4.49608 81.3515 4.40461 81.8932 4.32331C82.4349 4.22169 82.9666 4.13023 83.4883 4.04893C84.0099 3.96763 84.4413 3.89649 84.7824 3.83552H85.8056V24.5974L87.7919 24.8413V25.9083C87.511 26.0506 87.1499 26.1827 86.7085 26.3047C86.2671 26.4266 85.8056 26.5384 85.3241 26.64C84.8426 26.7417 84.3711 26.823 83.9096 26.8839C83.4682 26.9652 83.097 27.0262 82.7961 27.0669H81.7728L81.5019 23.7437H81.3816ZM78.6429 24.6889C79.3451 24.6889 79.937 24.4653 80.4185 24.0181C80.9 23.571 81.2511 22.8088 81.4718 21.7316V13.5305C81.211 13.3679 80.88 13.2358 80.4787 13.1342C80.0975 13.0325 79.616 12.9817 79.0341 12.9817C77.8704 12.9817 77.0378 13.5203 76.5362 14.5975C76.0346 15.6544 75.7838 17.1991 75.7838 19.2316C75.7838 20.8779 76.0045 22.1991 76.4459 23.195C76.8873 24.1909 77.6196 24.6889 78.6429 24.6889Z" fill="#FCF5ED"/>
<path d="M1.52281 47.4498C1.52281 46.21 1.70338 45.1023 2.06453 44.1267C2.44574 43.1308 2.97743 42.2873 3.6596 41.5963C4.36183 40.9052 5.20451 40.3768 6.18763 40.0109C7.17075 39.6451 8.28429 39.4621 9.52825 39.4621C10.9327 39.4621 12.1365 39.6654 13.1397 40.0719C14.163 40.4581 14.9956 41.0068 15.6377 41.7182C16.2998 42.4093 16.7813 43.2527 17.0822 44.2486C17.3832 45.2242 17.5337 46.2913 17.5337 47.4498C17.5337 48.6896 17.3531 49.8075 16.992 50.8034C16.6308 51.779 16.0991 52.6123 15.3969 53.3034C14.7147 53.9944 13.872 54.5229 12.8689 54.8887C11.8857 55.2546 10.7722 55.4375 9.52825 55.4375C8.16391 55.4375 6.98015 55.2444 5.97696 54.8582C4.97377 54.4517 4.14113 53.903 3.47902 53.2119C2.81692 52.5006 2.32536 51.6571 2.00434 50.6815C1.68332 49.6856 1.52281 48.6083 1.52281 47.4498ZM6.18763 47.4498C6.18763 48.3644 6.23779 49.2079 6.33811 49.9803C6.45849 50.7323 6.65913 51.3725 6.94002 51.901C7.22091 52.4294 7.60213 52.8461 8.08366 53.151C8.56519 53.4355 9.18716 53.5778 9.94958 53.5778C10.391 53.5778 10.7923 53.4762 11.1534 53.2729C11.5146 53.0493 11.8255 52.7038 12.0864 52.2363C12.3472 51.7485 12.5378 51.1185 12.6582 50.3461C12.7986 49.5534 12.8689 48.588 12.8689 47.4498C12.8689 46.5149 12.8087 45.6714 12.6883 44.9194C12.588 44.1674 12.3974 43.5271 12.1165 42.9987C11.8556 42.4702 11.4945 42.0637 11.033 41.7792C10.5716 41.4743 9.98971 41.3219 9.28748 41.3219C8.76582 41.3219 8.31439 41.4337 7.93318 41.6572C7.55197 41.8605 7.23095 42.206 6.97012 42.6938C6.70929 43.1613 6.50865 43.7913 6.3682 44.584C6.24782 45.3564 6.18763 46.3116 6.18763 47.4498Z" fill="#FCF5ED"/>
<path d="M28.1198 32.1452C28.9424 32.1452 29.6748 32.2265 30.3168 32.3891C30.9789 32.5314 31.4805 32.6736 31.8216 32.8159C31.7614 33.4866 31.631 34.1777 31.4303 34.889C31.2297 35.6004 31.0491 36.1898 30.8886 36.6573H29.8654L28.5412 33.761C28.0195 33.761 27.5781 33.822 27.217 33.9439C26.8759 34.0456 26.595 34.259 26.3743 34.5842C26.1736 34.9094 26.0232 35.3768 25.9228 35.9866C25.8225 36.576 25.7724 37.3484 25.7724 38.3036V39.828H28.9625V41.7487H25.7724V53.151C26.8157 53.2729 27.7787 53.5168 28.6615 53.8826V55.0717H19.4523V53.8826C20.0743 53.5168 20.7364 53.2729 21.4386 53.151V41.7487H19.1513V40.5597C19.8536 40.1125 20.616 39.7772 21.4386 39.5536V38.4865C21.4386 37.2264 21.6091 36.1898 21.9502 35.3768C22.3114 34.5435 22.7929 33.8931 23.3948 33.4256C23.9967 32.9379 24.6989 32.6025 25.5015 32.4196C26.3241 32.2366 27.1969 32.1452 28.1198 32.1452Z" fill="#FCF5ED"/>
<path d="M38.0093 40.5597C38.7717 40.0719 39.5743 39.7264 40.4169 39.5231V37.0536C40.5373 36.9317 40.738 36.8199 41.0189 36.7183C41.3198 36.5963 41.6308 36.4947 41.9518 36.4134C42.2929 36.3118 42.624 36.2203 42.945 36.139C43.266 36.0577 43.5268 35.9967 43.7275 35.9561H44.7507V39.828H48.7233V41.7487H44.7507V49.6449C44.7507 50.9051 44.9012 51.779 45.2021 52.2668C45.5232 52.7546 46.0448 52.9985 46.7671 52.9985C47.1283 52.9985 47.5295 52.9782 47.9709 52.9375C48.4324 52.8766 48.8537 52.7749 49.235 52.6327L49.4456 53.6387C49.2651 53.8217 48.9942 54.0148 48.633 54.218C48.292 54.4213 47.8907 54.6143 47.4292 54.7973C46.9878 54.9802 46.4963 55.1326 45.9545 55.2546C45.4329 55.3765 44.8811 55.4375 44.2993 55.4375C42.9951 55.4375 42.022 55.092 41.38 54.4009C40.738 53.7099 40.4169 52.592 40.4169 51.0473V41.7487H38.0093V40.5597Z" fill="#FCF5ED"/>
<path d="M58.5169 43.334C58.2761 43.456 57.9952 43.6592 57.6742 43.9438C57.3532 44.2283 57.0623 44.6958 56.8014 45.3462V53.151C57.2027 53.1916 57.604 53.2729 58.0052 53.3949C58.4065 53.4965 58.8078 53.6591 59.2091 53.8826V55.0717H50.4813V53.8826C50.8425 53.6794 51.1836 53.527 51.5046 53.4253C51.8256 53.3237 52.1466 53.2323 52.4677 53.151V41.9926L50.4813 41.7487V40.5597C50.8024 40.4174 51.1936 40.2853 51.6551 40.1633C52.1366 40.0414 52.6282 39.9398 53.1298 39.8585C53.6314 39.7569 54.1129 39.6755 54.5743 39.6146C55.0559 39.5536 55.4572 39.5028 55.7782 39.4621H56.8014V43.517H56.9218C57.0823 43.0698 57.313 42.6023 57.614 42.1145C57.935 41.6267 58.3062 41.1796 58.7275 40.7731C59.1489 40.3666 59.6104 40.0414 60.1119 39.7975C60.6135 39.5536 61.1352 39.4418 61.6769 39.4621C61.8976 39.7467 62.0882 40.1532 62.2487 40.6816C62.4092 41.1898 62.5397 41.6776 62.64 42.145V43.334H58.5169Z" fill="#FCF5ED"/>
<path d="M76.8952 50.651C76.8952 51.0981 76.8952 51.4843 76.8952 51.8095C76.9153 52.1347 76.9454 52.4802 76.9855 52.8461L79.0621 53.151V54.218C78.8213 54.34 78.4903 54.4619 78.0689 54.5839C77.6676 54.7058 77.2363 54.8278 76.7748 54.9497C76.3334 55.0513 75.892 55.1326 75.4506 55.1936C75.0092 55.2749 74.618 55.3359 74.2769 55.3765H73.2536C73.053 54.9091 72.9326 54.4416 72.8925 53.9741C72.8523 53.5066 72.8223 52.9375 72.8022 52.2668H72.6517C72.5514 52.6733 72.3809 53.0697 72.1401 53.4558C71.8993 53.8217 71.5883 54.157 71.2071 54.4619C70.846 54.7465 70.4146 54.9802 69.913 55.1631C69.4114 55.346 68.8496 55.4375 68.2277 55.4375C67.5656 55.4375 66.9536 55.3359 66.3918 55.1326C65.83 54.9294 65.3385 54.6448 64.9171 54.279C64.4958 53.9131 64.1647 53.4761 63.924 52.968C63.6832 52.4396 63.5628 51.8502 63.5628 51.1998C63.5628 50.2851 63.7334 49.5331 64.0745 48.9437C64.4155 48.3543 64.9472 47.8766 65.6695 47.5108C66.4119 47.1246 67.3549 46.8401 68.4985 46.6572C69.6622 46.4742 71.0667 46.3421 72.7119 46.2608C72.8724 44.5129 72.8022 43.2324 72.5012 42.4194C72.2003 41.6064 71.5482 41.1999 70.545 41.1999C69.923 41.1999 69.3512 41.3015 68.8296 41.5048L67.4151 45.1633H66.0909C65.9304 44.9194 65.7698 44.645 65.6093 44.3401C65.4689 44.0149 65.3284 43.6796 65.188 43.334C65.0676 42.9682 64.9573 42.6023 64.8569 42.2365C64.7767 41.8706 64.7165 41.515 64.6764 41.1694C65.4388 40.641 66.4219 40.2243 67.6257 39.9195C68.8296 39.6146 70.1036 39.4621 71.4479 39.4621C72.5915 39.4621 73.5245 39.5943 74.2468 39.8585C74.9691 40.1024 75.5309 40.4479 75.9321 40.895C76.3535 41.3219 76.6444 41.83 76.8049 42.4194C76.9654 43.0088 77.0457 43.6389 77.0457 44.3096C77.0457 45.5291 77.0156 46.6368 76.9554 47.6327C76.9153 48.6083 76.8952 49.6144 76.8952 50.651ZM70.1237 52.9985C70.545 52.9985 70.9062 52.9172 71.2071 52.7546C71.5081 52.592 71.7589 52.3989 71.9595 52.1754C72.1802 51.9518 72.3407 51.7079 72.441 51.4437C72.5614 51.1794 72.6517 50.9457 72.7119 50.7425V47.6937C71.7689 47.714 70.9965 47.775 70.3945 47.8766C69.7926 47.9783 69.3211 48.151 68.98 48.3949C68.639 48.6185 68.3982 48.9132 68.2578 49.2791C68.1374 49.6246 68.0772 50.0514 68.0772 50.5595C68.0772 51.3319 68.2578 51.9315 68.6189 52.3583C68.98 52.7851 69.4816 52.9985 70.1237 52.9985Z" fill="#FCF5ED"/>
<path d="M86.8159 55.4375L80.7968 41.7487C80.215 41.5454 79.6833 41.3015 79.2017 41.017V39.828H87.1169V40.9865C86.8561 41.1288 86.5852 41.2711 86.3043 41.4133C86.0435 41.5353 85.7425 41.6471 85.4014 41.7487L88.2003 49.5534L88.7722 51.5961H88.8323L89.3139 49.523L91.872 41.7487C91.551 41.6674 91.25 41.5658 90.9691 41.4438C90.7083 41.3219 90.4575 41.1796 90.2167 41.017V39.828H96.0252V41.017C95.8246 41.1593 95.5738 41.2914 95.2728 41.4133C94.9919 41.5353 94.6709 41.6471 94.3097 41.7487L89.043 55.0717L86.8159 55.4375Z" fill="#FCF5ED"/>
<path d="M109.912 52.5107C109.751 52.8562 109.49 53.2119 109.129 53.5778C108.788 53.9233 108.357 54.2383 107.835 54.5229C107.334 54.7871 106.742 55.0005 106.06 55.1631C105.397 55.346 104.675 55.4375 103.893 55.4375C102.649 55.4375 101.545 55.2546 100.582 54.8887C99.619 54.5026 98.8165 53.9639 98.1745 53.2729C97.5324 52.5615 97.0408 51.718 96.6998 50.7425C96.3787 49.7669 96.2182 48.6693 96.2182 47.4498C96.2182 44.8482 96.8904 42.8666 98.2346 41.5048C99.5789 40.143 101.445 39.4621 103.832 39.4621C104.856 39.4621 105.809 39.6044 106.692 39.889C107.594 40.1735 108.337 40.641 108.919 41.2914C109.521 41.9418 109.932 42.7954 110.153 43.8523C110.393 44.9092 110.383 46.1998 110.122 47.7242H100.883C100.903 49.3299 101.304 50.6103 102.087 51.5656C102.889 52.5209 104.063 52.9985 105.608 52.9985C106.27 52.9985 106.952 52.8969 107.655 52.6936C108.377 52.4904 108.939 52.2262 109.34 51.901L109.912 52.5107ZM103.712 41.1999C103.311 41.1999 102.95 41.2711 102.629 41.4133C102.328 41.5556 102.057 41.8198 101.816 42.206C101.595 42.5718 101.415 43.08 101.274 43.7304C101.134 44.3604 101.034 45.1633 100.973 46.1389H105.819C105.959 44.5535 105.869 43.334 105.548 42.4804C105.227 41.6267 104.615 41.1999 103.712 41.1999Z" fill="#FCF5ED"/>
<path d="M120.689 55.0717H112.383V53.8826C113.045 53.5574 113.707 53.3136 114.369 53.151V34.6756L112.082 34.4317V33.2427C112.343 33.1208 112.704 32.9988 113.165 32.8769C113.627 32.7549 114.118 32.6533 114.64 32.572C115.182 32.4704 115.713 32.3891 116.235 32.3281C116.777 32.2468 117.258 32.1858 117.68 32.1452H118.703V53.151C119.365 53.3136 120.027 53.5574 120.689 53.8826V55.0717Z" fill="#FCF5ED"/>
</svg>
